<?xml version="1.0" standalone="no"?>
<!DOCTYPE svg PUBLIC "-//W3C//DTD SVG 20010904//EN"
 "http://www.w3.org/TR/2001/REC-SVG-20010904/DTD/svg10.dtd">
<svg version="1.0" xmlns="http://www.w3.org/2000/svg"
 width="1024.000000pt" height="1024.000000pt" viewBox="0 0 1024.000000 1024.000000"
 preserveAspectRatio="xMidYMid meet">

<g transform="translate(0.000000,1024.000000) scale(0.100000,-0.100000)"
fill="#000000" stroke="none">
<path d="M3930 7305 c-143 -53 -364 -219 -597 -448 l-152 -150 -39 16 c-116
47 -244 67 -412 67 -149 0 -266 -16 -388 -55 l-80 -25 -54 57 c-258 281 -610
543 -728 543 -80 0 -206 -256 -256 -520 -14 -77 -18 -151 -19 -390 l-1 -295
-55 -75 c-321 -436 -429 -1033 -289 -1583 119 -462 431 -887 853 -1162 120
-78 329 -176 467 -219 183 -58 308 -78 526 -83 208 -6 299 3 483 43 96 22 376
108 390 120 2 2 -26 35 -62 73 -71 76 -130 157 -170 238 l-27 51 73 40 c260
144 485 380 621 649 80 160 122 291 156 482 11 64 23 125 25 137 2 11 90 94
195 183 104 89 190 164 190 165 0 2 -6 16 -14 32 -8 16 -40 90 -71 164 -69
162 -116 256 -226 455 l-84 150 18 105 c11 68 20 185 23 335 7 260 -7 406 -52
561 -46 160 -152 355 -192 353 -9 0 -33 -6 -52 -14z m-2246 -309 c131 -105
314 -288 401 -401 38 -49 72 -94 75 -98 4 -5 47 5 94 22 163 57 271 75 466 75
218 0 295 -14 473 -81 37 -15 69 -24 70 -22 115 152 320 363 477 490 120 97
209 163 214 158 2 -2 15 -38 29 -80 41 -118 59 -239 64 -434 6 -200 -8 -353
-53 -576 l-25 -127 38 -53 c79 -110 167 -260 268 -460 l104 -206 -87 -59
c-129 -88 -385 -282 -482 -365 -228 -197 -509 -363 -755 -446 -320 -108 -553
-84 -895 93 -183 95 -343 206 -637 442 -143 115 -283 225 -310 243 -26 18 -50
34 -52 35 -2 2 9 24 23 50 14 26 24 49 22 51 -2 2 -28 0 -57 -5 -30 -6 -55 -9
-57 -8 -6 7 30 77 55 106 25 31 26 32 5 26 -12 -4 -22 -5 -22 -1 0 15 40 82
59 99 13 12 17 22 11 26 -6 4 15 58 56 140 75 152 117 221 170 280 28 31 34
44 25 50 -8 4 -9 9 -3 11 6 3 3 31 -9 77 -38 148 -53 298 -53 517 -1 159 4
233 17 304 18 97 61 236 79 258 12 15 52 -11 202 -131z m-353 -2212 c115 -97
209 -178 209 -180 0 -1 -31 -79 -69 -173 -37 -93 -79 -211 -92 -260 -13 -50
-27 -91 -31 -91 -11 0 -135 258 -159 330 -11 36 -30 104 -40 153 -26 116 -49
397 -33 397 3 0 99 -79 215 -176z m540 -409 c194 -123 399 -217 579 -266 74
-21 108 -24 255 -23 238 0 374 32 604 140 51 24 91 38 88 31 -3 -7 -46 -79
-96 -160 -161 -260 -190 -332 -198 -487 -6 -118 10 -202 52 -278 14 -25 25
-50 25 -57 0 -26 -350 -33 -540 -10 -382 45 -730 205 -996 457 l-77 73 6 100
c6 107 38 240 82 340 40 92 99 205 106 205 4 0 53 -29 110 -65z"/>
<path d="M1554 6805 c-5 -16 -9 -124 -8 -240 0 -175 4 -231 23 -335 13 -69 25
-127 27 -129 2 -2 27 18 56 44 29 26 105 85 171 132 l118 85 -23 39 c-58 97
-159 228 -253 326 l-103 108 -8 -30z"/>
<path d="M3774 6718 c-50 -51 -111 -120 -136 -153 -60 -80 -142 -204 -137
-208 2 -2 40 -28 83 -58 44 -30 120 -92 168 -138 48 -46 88 -79 88 -75 0 5 9
58 20 118 34 186 43 324 30 465 -6 69 -15 129 -19 134 -4 4 -48 -35 -97 -85z"/>
<path d="M1980 5623 c-86 -14 -178 -66 -210 -119 -28 -44 -44 -98 -27 -90 251
111 335 98 514 -77 51 -50 96 -88 99 -84 18 17 15 104 -5 157 -56 150 -213
240 -371 213z"/>
<path d="M3303 5616 c-96 -31 -188 -119 -222 -212 -26 -69 -26 -92 0 -120 l21
-23 50 60 c56 67 112 112 177 141 85 39 253 18 359 -42 30 -18 32 -18 32 -2
-1 61 -76 148 -159 185 -58 26 -197 33 -258 13z"/>
<path d="M2621 4969 c-70 -12 -109 -35 -132 -79 -48 -89 0 -173 107 -188 46
-7 49 -9 49 -37 0 -43 -52 -67 -145 -67 -93 0 -156 30 -248 117 -63 59 -74 66
-96 58 l-25 -8 34 -71 c56 -116 150 -183 290 -206 73 -12 170 -1 228 27 33 15
37 15 60 0 40 -26 145 -38 231 -26 136 19 241 92 300 210 32 63 32 71 0 71
-18 0 -45 -17 -85 -55 -111 -102 -191 -133 -295 -114 -85 16 -116 34 -112 67
3 24 9 27 67 38 49 8 70 18 87 38 35 40 40 86 15 140 -16 38 -29 51 -64 66
-53 24 -188 33 -266 19z"/>
<path d="M5054 6021 c-2 -2 -4 -330 -4 -727 l0 -723 136 -3 c88 -2 138 1 141
7 2 6 2 232 1 503 -2 271 -1 492 2 492 3 -1 147 -225 322 -498 l316 -497 146
-3 146 -3 0 728 0 728 -147 -2 -148 -2 -5 -478 -5 -478 -42 70 c-23 39 -158
254 -301 478 l-259 408 -147 2 c-81 1 -150 0 -152 -2z"/>
<path d="M6824 5659 c-179 -21 -335 -134 -410 -294 -42 -92 -58 -184 -51 -304
17 -307 231 -506 542 -505 174 1 301 50 411 159 96 96 144 221 144 379 0 382
-258 611 -636 565z m194 -248 c108 -56 163 -199 142 -368 -21 -161 -114 -253
-255 -253 -94 0 -172 56 -217 155 -19 43 -22 67 -23 165 0 99 3 122 23 166 25
54 77 111 127 137 44 23 156 22 203 -2z"/>
<path d="M8895 5659 c-44 -3 -99 -11 -123 -18 -53 -15 -168 -69 -180 -85 -5
-6 1 -54 17 -120 23 -98 27 -107 40 -92 25 30 125 74 194 86 153 27 267 -44
267 -166 0 -20 -7 -21 -113 -27 -213 -11 -339 -50 -426 -132 -67 -63 -92 -123
-92 -225 0 -98 33 -181 94 -236 133 -121 376 -122 511 -4 18 17 36 30 40 30 3
0 6 -22 6 -50 l0 -50 138 0 137 0 -6 377 c-6 402 -8 422 -61 528 -39 79 -126
148 -213 170 -57 14 -150 20 -230 14z m225 -656 c-1 -130 -89 -222 -213 -223
-99 0 -154 52 -144 137 10 96 95 140 270 142 l87 1 0 -57z"/>
<path d="M7430 5635 c0 -5 213 -596 321 -892 l63 -173 157 0 c140 0 158 2 164
18 11 28 170 466 271 751 53 145 99 273 105 283 9 17 2 18 -145 18 l-154 0
-19 -62 c-10 -35 -62 -208 -113 -385 -52 -178 -99 -323 -105 -323 -5 0 -36 82
-68 183 -32 100 -88 273 -124 385 l-66 202 -143 0 c-79 0 -144 -2 -144 -5z"/>
</g>
</svg>
